#tb 0: 71/1000
0,          0,          0,        1,   192000, 0x8b8bd8de
0,          1,          1,        1,   192000, 0xdac26ec2
0,          2,          2,        1,   192000, 0x0fc01c28
0,          3,          3,        1,   192000, 0x1251eef7
0,          4,          4,        1,   192000, 0x89eced0e
0,          5,          5,        1,   192000, 0x4943d821
0,          6,          6,        1,   192000, 0x49258ec9
0,          7,          7,        1,   192000, 0x9afd5881
0,          8,          8,        1,   192000, 0xb322b901
